<svg width="152" height="152" viewBox="0 0 152 152" fill="none" xmlns="http://www.w3.org/2000/svg">
<path d="M2.18499 73.4713C-3.57721 90.9433 12.7073 103.098 28.7413 107.403C38.0109 109.891 50.2367 104.921 51.0384 94.9948C52.0406 82.5871 41.5183 71.6987 33.0003 65.3683C24.4822 59.0378 7.9472 55.9992 2.18499 73.4713Z" fill="black" stroke="black"/>
<path d="M25.552 44.4373C26.8047 55.8321 40.2498 66.0452 47.8493 69.7591C55.8663 72.7977 67.0792 68.9911 68.6433 61.4029C68.6433 61.4029 71.3992 53.0467 68.1422 42.1583C65.821 34.3983 60.7476 28.0387 58.6221 25.4459C53.6114 19.3337 44.3418 16.5832 37.0764 19.1154C31.0637 21.9008 23.9197 29.5888 25.552 44.4373Z" fill="black" stroke="black"/>
<path d="M69.6454 11.7721C63.1316 21.3944 67.1401 37.6004 73.1528 46.9695C75.9984 51.4034 80.1677 54.8193 85.4288 56.0853C90.1889 56.845 93.9469 57.3514 100.21 51.021C106.473 44.6905 106.724 28.4845 106.223 21.9009C105.603 13.7589 98.4564 4.68199 93.9468 2.40304C86.6513 -1.28387 75.9547 2.45186 69.6454 11.7721Z" fill="black" stroke="black"/>
<path d="M109.981 46.2098C109.48 60.3901 115.743 69.2527 121.756 72.0381C126.134 74.0663 129.817 73.6861 132.278 72.7978C135.785 71.5317 141.548 64.948 144.053 61.1497C146.558 57.3515 152.07 44.6905 150.817 33.8021C149.565 22.9137 140.968 18.6386 134.533 18.3558C128.771 18.1026 122.257 21.0526 119.501 23.4201C114.49 27.7249 110.464 32.5237 109.981 46.2098Z" fill="black" stroke="black"/>
<path d="M50.104 110.021C46.8472 116.098 42.8386 129.519 48.3503 138.635C52.9433 146.231 62.38 154.081 83.174 149.776C94.0603 147.523 96.4521 140.66 102.715 136.862C110.231 132.304 119.124 135.152 128.27 131.798C135.444 129.167 141.201 123.851 145.055 117.617C153.824 103.437 145.58 90.3608 140.796 85.9651C135.284 80.9008 121.004 79.3814 116.244 78.1153C111.484 77.3556 104.97 69.5059 97.4543 66.4673C89.9384 63.4287 82.0528 65.6359 77.1613 67.7334C68.8938 71.2785 62.2528 77.8378 61.6284 90.7763C61.1273 101.158 53.3609 103.944 50.104 110.021Z" fill="black" stroke="black"/>
</svg>
